<?xml version="1.0" standalone="no"?>
<!DOCTYPE svg PUBLIC "-//W3C//DTD SVG 20010904//EN"
 "http://www.w3.org/TR/2001/REC-SVG-20010904/DTD/svg10.dtd">
<svg version="1.0" xmlns="http://www.w3.org/2000/svg"
 width="700.000000pt" height="700.000000pt" viewBox="0 0 700.000000 700.000000"
 preserveAspectRatio="xMidYMid meet">
<metadata>
Created by potrace 1.11, written by Peter Selinger 2001-2013
</metadata>
<g transform="translate(0.000000,700.000000) scale(0.100000,-0.100000)"
fill="#000000" stroke="none">
<path d="M688 5779 c-24 -12 -45 -34 -58 -59 -20 -39 -20 -53 -18 -1762 l3
-1723 28 -37 c16 -20 42 -41 59 -47 22 -8 848 -11 2800 -11 3040 0 2812 -5
2859 61 l24 34 3 1724 2 1724 -24 42 c-48 80 237 73 -2865 73 -2723 0 -2777 0
-2813 -19z m5192 -488 c3 0 5 -596 5 -1323 l0 -1323 -2385 0 -2385 0 -1 1320
c0 726 0 1322 2 1325 2 4 4747 5 4764 1z"/>
<path d="M10 1875 c-26 -31 46 -217 128 -327 139 -189 351 -303 622 -337 44
-5 1194 -9 2755 -9 2547 0 2685 1 2780 18 128 24 193 44 278 87 201 101 337
260 408 477 17 50 20 73 12 85 -9 15 -276 16 -3490 19 -3094 2 -3482 0 -3493
-13z m4010 -330 l0 -120 -520 0 -520 0 0 120 0 120 520 0 520 1 0 -121z"/>
</g>
</svg>
