<?xml version="1.0" encoding="utf-8"?>
<!-- Generator: Adobe Illustrator 22.0.1, SVG Export Plug-In . SVG Version: 6.00 Build 0)  -->
<svg version="1.1" id="Capa_1" xmlns="http://www.w3.org/2000/svg" xmlns:xlink="http://www.w3.org/1999/xlink" x="0px" y="0px"
	 viewBox="0 0 300 300" style="enable-background:new 0 0 300 300;" xml:space="preserve" height="200px">
<style type="text/css">
	.st0{fill:#020203;}
	.st1{fill:#0D71B9;}
	.st2{fill:#2DABE3;}
	.st3{fill:#B4B4B4;}
	.st4{fill:#E7E6E6;}
	.st5{fill:#FFFFFF;}
</style>
<g>
	<g>
		<polygon class="st0" points="119.5,13.8 119.5,0 88.2,0 88.2,40.4 119.5,40.4 119.5,26.6 101.3,26.6 101.3,13.8 		"/>
		<polygon class="st0" points="163.9,0 132.6,0 132.6,14.2 145.6,26.6 132.6,26.6 132.6,40.4 163.9,40.4 163.9,26.9 152,13.8 
			163.9,13.8 		"/>
		<polygon class="st0" points="209.3,0 178,0 178,14.2 190.5,26.6 178,26.6 178,40.4 209.3,40.4 209.3,26.9 196.9,13.8 209.3,13.8 
					"/>
	</g>
	<polygon class="st1" points="66.2,275.9 47.8,58.8 249.6,58.8 231.2,275.9 148.6,300 	"/>
	<polygon class="st2" points="148.9,281.5 215.6,262.2 231.2,76.9 148.9,76.9 	"/>
	<polygon class="st3" points="89.9,156.7 92.1,183.2 148.9,156.7 148.9,130 	"/>
	<polygon class="st4" points="211.8,101.6 148.9,130 148.9,156.7 209.7,128.2 	"/>
	<polygon class="st4" points="148.9,226.2 148.7,226.2 120.5,218.3 118.7,197.1 93.3,197.1 96.8,238.8 148.7,254 148.9,253.9 	"/>
	<polygon class="st5" points="148.9,156.7 148.9,183.2 179.7,183.2 176.9,218 148.9,226.2 148.9,253.9 200.6,238.8 207.4,156.7 	"/>
	<polygon class="st4" points="148.9,156.7 89.9,156.7 92.1,183.2 148.9,183.2 	"/>
	<polygon class="st4" points="148.9,128.2 148.9,101.6 148.6,101.6 85.4,101.6 87.6,128.2 	"/>
	<polygon class="st5" points="148.9,101.6 148.9,127.9 148.9,128.2 209.7,128.2 211.8,101.6 	"/>
</g>
</svg>
