<?xml version="1.0" encoding="utf-8"?>
<!-- Generator: Adobe Illustrator 22.0.1, SVG Export Plug-In . SVG Version: 6.00 Build 0)  -->
<svg version="1.1" id="Capa_1" xmlns="http://www.w3.org/2000/svg" xmlns:xlink="http://www.w3.org/1999/xlink" x="0px" y="0px"
	 viewBox="0 0 300 300" style="enable-background:new 0 0 300 300;" xml:space="preserve" height="200px">
<style type="text/css">
	.st0{fill:#DF4215;}
	.st1{fill:#13110C;}
	.st2{fill:#EA5C1C;}
	.st3{fill:#FFFFFF;}
	.st4{fill:#F1F1F2;}
</style>
<g>
	<polygon class="st0" points="250.3,58.2 144.2,58.2 144.2,58.2 38.1,58.2 58,273.9 144.2,298.4 144.2,298.4 144.2,298.4 
		144.2,298.4 144.2,298.4 230.4,273.9 	"/>
	<path class="st1" d="M83.6,13H71.3V-0.4H57.8v40.3h13.6V26.6h12.3v13.4h13.5V-0.4H83.6V13z M178.1-0.4h-1.2l-8.4,13.8l-8.4-13.8
		h-0.9h-12.5h-0.6v40.3h13.1V19.8l9.3,14.5l0,0l0,0l0,0l0,0l9.6-14.9v20.5h13.1V-0.4h-0.9H178.1z M103,13.2h11.8v26.7h13.6V13.2
		h11.8V-0.4H103V13.2z M211.7,26.4V-0.4h-13.5v40.3h3.4h10.1h18.9V26.4H211.7z"/>
	<polygon class="st2" points="144.2,75.8 144.2,280.1 144.2,280.1 214,260.3 231,75.8 	"/>
	<polygon class="st3" points="210.9,102.2 77.4,102.2 84.9,183 85,182.5 176.3,182.5 173.3,216.7 144.2,225.1 114.6,216.5 
		112.9,195.9 86,195.9 89.9,237.2 144.2,252.6 198.5,237.2 206,156.1 109.2,156.1 106.7,129.1 208.5,129.1 	"/>
	<g>
		<path class="st4" d="M144.2,102.2H77.4l7.5,80.8l0.2-0.5h59.2v-26.4h-35l-2.5-27h37.5V102.2z M112.9,195.9H86l3.8,41.3l54.3,15.4
			v-27.5l-29.5-8.5L112.9,195.9z"/>
	</g>
</g>
</svg>
