<?xml version="1.0" encoding="utf-8"?>
<!-- Generator: Adobe Illustrator 22.0.1, SVG Export Plug-In . SVG Version: 6.00 Build 0)  -->
<svg version="1.1" id="Capa_1" xmlns="http://www.w3.org/2000/svg" xmlns:xlink="http://www.w3.org/1999/xlink" x="0px" y="0px"
	 viewBox="0 0 300 300" style="enable-background:new 0 0 300 300;" xml:space="preserve" height="200px">
<style type="text/css">
	.st0{fill:#E8A50A;}
	.st1{fill:#F3C100;}
	.st2{fill:#FFFFFF;}
	.st3{fill:#F1F1F2;}
</style>
<g>
	<polygon class="st0" points="250.9,58.8 144.3,58.8 144.3,58.8 37.8,58.8 57.7,275.5 144.3,300 144.3,300 144.3,300 144.3,300 
		144.3,300 230.9,275.5 	"/>
	<polygon class="st1" points="144.3,76.4 144.3,281.7 144.3,281.7 214.4,261.8 231.5,76.4 	"/>
	<polygon class="st2" points="200.1,103 92.3,103 84.8,184.2 84.9,183.6 176.5,183.6 173.5,218 144.3,226.4 114.7,217.8 
		112.9,197.1 85.9,197.1 89.8,238.6 144.3,254 198.9,238.6 206.4,157.1 109.2,157.1 110.4,130 177.9,130 178.9,145.5 206,145.5 	"/>
	<g>
		<path class="st3" d="M144.3,103H92.3l-7.5,81.1l0.2-0.5h59.4v-26.5h-31.4l1.2-27.2h30.2V103z M112.9,197.1H85.9l3.8,41.5
			l54.5,15.5v-27.6l-29.7-8.6L112.9,197.1z"/>
	</g>
	<g>
		<polygon points="123.6,26.8 104.6,26.8 104.6,40.4 123.6,40.4 133.7,40.4 137.2,40.4 137.2,0 123.6,0 		"/>
		<path d="M184,0.2H151c0,0,0,7.1,0,14.2c4.4,4.4,6.7,6.5,13.1,12.9c-3.7,0-13.1,0-13.1,0v12.9H184V27.3l-13.2-12.9H184V0.2z"/>
	</g>
</g>
</svg>
